<?xml version="1.0" encoding="UTF-8"?> <svg xmlns="http://www.w3.org/2000/svg" width="64" height="64" viewBox="0 0 64 64" fill="none"><rect x="8" y="8" width="48" height="48" rx="24" fill="white"></rect><rect opacity="0.5" x="1" y="1" width="62" height="62" rx="31" stroke="white" stroke-linecap="round" stroke-dasharray="5 5"></rect><g clip-path="url(#clip0)"><path d="M38.316 26.0518L26.316 22.0518C26.008 21.9478 25.674 21.9998 25.416 22.1878C25.154 22.3758 25 22.6778 25 22.9998V40.9998C25 41.4298 25.276 41.8118 25.684 41.9498L37.684 45.9498C37.788 45.9818 37.894 45.9998 38 45.9998C38.208 45.9998 38.412 45.9358 38.584 45.8098C38.846 45.6218 39 45.3218 39 44.9998V26.9998C39 26.5698 38.724 26.1878 38.316 26.0518Z" fill="#42A5F5"></path><path d="M26 22.0161C25.862 22.0161 25.724 22.0281 25.594 22.0841L16.594 26.0841C16.232 26.2481 16 26.6041 16 27.0001V45.0001C16 45.3381 16.17 45.6541 16.456 45.8381C16.62 45.9461 16.81 46.0001 17 46.0001C17.138 46.0001 17.276 45.9701 17.406 45.9141L26 42.0941V22.0161Z" fill="#64B5F6"></path><path d="M47.544 22.162C47.258 21.978 46.904 21.948 46.592 22.086L38 25.906V46C38.138 46 38.276 45.97 38.406 45.914L47.406 41.914C47.768 41.754 48 41.394 48 41V23C48 22.662 47.828 22.346 47.544 22.162Z" fill="#2196F3"></path><path d="M41 14C37.14 14 34 17.14 34 21C34 24.592 39.616 30.954 40.256 31.668C40.446 31.878 40.716 32 41 32C41.284 32 41.554 31.878 41.744 31.668C42.384 30.954 48 24.592 48 21C48 17.14 44.86 14 41 14Z" fill="#FFC107"></path><path d="M41 24C42.6569 24 44 22.6569 44 21C44 19.3431 42.6569 18 41 18C39.3431 18 38 19.3431 38 21C38 22.6569 39.3431 24 41 24Z" fill="#FAFAFA"></path></g><defs><clipPath id="clip0"><rect width="32" height="32" fill="white" transform="translate(16 14)"></rect></clipPath></defs></svg> 