<?xml version="1.0" encoding="UTF-8"?> <svg xmlns="http://www.w3.org/2000/svg" width="64" height="64" viewBox="0 0 64 64" fill="none"><rect x="8" y="8" width="48" height="48" rx="24" fill="white"></rect><rect opacity="0.5" x="1" y="1" width="62" height="62" rx="31" stroke="white" stroke-linecap="round" stroke-dasharray="5 5"></rect><path d="M39 22H21C18.794 22 17 23.794 17 26V38C17 40.206 18.794 42 21 42V47C21 47.39 21.228 47.746 21.582 47.908C21.716 47.97 21.858 48 22 48C22.234 48 22.466 47.918 22.65 47.76L29.37 42H39C41.206 42 43 40.206 43 38V26C43 23.794 41.206 22 39 22Z" fill="#2196F3"></path><path d="M39 22H31.202C31.07 22.646 31 23.314 31 24C31 29.522 35.478 34 41 34C41.686 34 42.354 33.93 43 33.798V26C43 23.794 41.206 22 39 22Z" fill="#FAFAFA"></path><path d="M41 32C45.4183 32 49 28.4183 49 24C49 19.5817 45.4183 16 41 16C36.5817 16 33 19.5817 33 24C33 28.4183 36.5817 32 41 32Z" fill="#FFC107"></path><path d="M41 28C40.448 28 40 27.552 40 27V21C40 20.448 40.448 20 41 20C41.552 20 42 20.448 42 21V27C42 27.552 41.552 28 41 28Z" fill="#FAFAFA"></path><path d="M44 25H38C37.448 25 37 24.552 37 24C37 23.448 37.448 23 38 23H44C44.552 23 45 23.448 45 24C45 24.552 44.552 25 44 25Z" fill="#FAFAFA"></path></svg> 