<?xml version="1.0" encoding="UTF-8"?> <svg xmlns="http://www.w3.org/2000/svg" width="64" height="64" viewBox="0 0 64 64" fill="none"><rect x="8" y="8" width="48" height="48" rx="24" fill="white"></rect><rect opacity="0.5" x="1" y="1" width="62" height="62" rx="31" stroke="white" stroke-linecap="round" stroke-dasharray="5 5"></rect><g clip-path="url(#clip0)"><path d="M48 25.6533V39.6667C48 41.32 46.6533 42.6667 45 42.6667H19C17.3467 42.6667 16 41.32 16 39.6667V25.6533L30.76 33.36C31.5333 33.76 32.4667 33.76 33.24 33.36L48 25.6533Z" fill="#64B5F6"></path><path d="M48 24.3335V25.6535L33.24 33.3602C32.4667 33.7602 31.5333 33.7602 30.76 33.3602L16 25.6535V24.3335C16 22.6802 17.3467 21.3335 19 21.3335H45C46.6533 21.3335 48 22.6802 48 24.3335Z" fill="#2196F3"></path></g><defs><clipPath id="clip0"><rect width="32" height="32" fill="white" transform="translate(16 16)"></rect></clipPath></defs></svg> 