<?xml version="1.0" encoding="UTF-8"?> <svg xmlns="http://www.w3.org/2000/svg" width="364" height="271" viewBox="0 0 364 271" fill="none"><g clip-path="url(#clip0)"><path d="M180.745 151.044C179.96 150.661 179.288 151.836 180.073 152.258C185.773 155.322 191.356 158.608 196.618 162.41C199.144 164.236 203.356 166.542 205.161 169.129C208.398 170.76 208.317 173.16 204.918 176.329C203.801 176.686 202.673 177.003 201.534 177.278C190.017 180.211 179.166 179.23 167.778 176.866C169.975 174.3 171.906 171.46 173.567 168.392C176.246 169.501 178.934 170.744 181.708 171.561C182.236 171.716 182.591 170.867 182.074 170.626C179.481 169.417 176.696 168.567 173.989 167.643C174.629 166.407 175.23 165.14 175.772 163.826C176.122 162.978 176.424 162.125 176.722 161.272C179.361 162.517 181.909 163.943 184.409 165.462C184.936 165.782 185.349 164.979 184.869 164.631C182.426 162.86 179.804 161.489 177.055 160.31C177.6 158.634 178.033 156.95 178.388 155.264C180.823 156.744 183.119 158.397 185.444 160.072C185.949 160.435 186.577 159.593 186.104 159.183C183.82 157.204 181.228 155.619 178.561 154.226C178.768 153.122 178.987 152.017 179.113 150.915C187.57 144.892 195.644 138.344 203.27 131.253C206.174 128.552 214.17 123.443 212.494 118.263C211.06 113.828 204.744 113.445 201.092 113.097C196.663 112.675 192.203 112.596 187.752 112.795C187.307 112.619 186.857 112.444 186.417 112.264C185.961 112.077 185.593 112.604 185.824 112.927C181.782 113.183 177.751 113.633 173.766 114.325C173.678 114.291 173.591 114.253 173.503 114.22C173.297 114.142 173.125 114.28 173.046 114.46C172.081 114.634 171.116 114.808 170.157 115.005C169.558 115.127 169.695 116.187 170.311 116.098C171.195 115.97 172.621 115.761 174.395 115.529C179.375 117.695 184.226 120.063 189.024 122.636C189.583 122.935 190.059 122.083 189.508 121.762C185.243 119.282 180.777 117.153 176.213 115.3C179.675 114.881 184.069 114.456 188.506 114.309C191.33 115.686 194.179 117.092 197.113 118.107C197.736 118.323 198.114 117.324 197.54 117.015C195.591 115.964 193.526 115.089 191.445 114.258C201.504 114.244 210.779 116.052 208.784 123.273C207.695 127.215 197.98 133.577 194.855 136.257C189.85 140.55 184.626 144.545 179.316 148.431C179.454 146.217 179.382 144.027 179.214 141.855C180.739 142.424 182.249 143.03 183.75 143.666C184.351 143.921 184.869 143.077 184.263 142.74C182.61 141.819 180.884 141.117 179.103 140.54C178.846 138.097 178.396 135.696 177.774 133.356C180.46 134.589 183.35 135.557 186.19 135.995C186.833 136.094 187.094 135.152 186.44 134.974C183.345 134.136 180.375 133.235 177.4 132.118C176.504 129.086 175.297 126.175 173.825 123.42C178.141 125.046 182.287 127.043 186.417 129.115C186.941 129.377 187.369 128.62 186.865 128.306C182.552 125.616 177.931 123.738 173.118 122.205C171.675 119.699 170.028 117.319 168.111 115.154C168.168 115.096 168.247 115.082 168.286 114.995C172.435 105.588 174.964 95.0859 176.355 84.8843C176.903 80.8576 178.066 73.8668 173.028 72.1228C169.228 70.8076 163.921 74.1233 159.953 77.0316C159.827 76.9581 159.7 76.8855 159.574 76.8117C158.983 76.4671 158.489 77.3477 159.005 77.7359C158.009 78.4857 157.121 79.1798 156.404 79.7162C155.514 80.3823 154.649 81.0734 153.802 81.7833C153.704 81.7169 153.6 81.6623 153.502 81.5944C153.087 81.3085 152.737 81.9838 153.125 82.2761C153.146 82.2919 153.168 82.306 153.189 82.3218C147.842 86.9267 143.346 92.3885 139.645 98.475C134.549 87.8308 128.845 77.4992 122.536 67.5511C120.099 63.7078 115.985 55.1701 110.291 55.5394C104.747 55.8992 102.893 64.2108 101.217 68.2755C99.8091 71.692 98.5671 75.1643 97.4038 78.6616L97.3834 78.6476C96.9023 78.3237 96.4887 79.1045 96.9472 79.4357C97.0049 79.4773 97.0635 79.5172 97.1212 79.5588C96.4667 81.5655 95.7992 83.5676 95.22 85.5974C95.1704 85.5612 95.1212 85.5245 95.0716 85.4883C94.8146 85.2999 94.578 85.7369 94.8301 85.9248C94.9113 85.9853 94.9926 86.0458 95.0739 86.1063C94.5294 88.0359 94.0162 89.9745 93.5383 91.9244C93.1691 91.6697 92.6834 92.1715 93.0382 92.5056C93.1333 92.5945 93.2318 92.6801 93.3266 92.7696C92.6895 95.4272 92.1081 98.1004 91.5933 100.792C91.4422 101.582 92.5994 101.893 92.7909 101.099C93.3675 98.702 93.9778 96.3191 94.6093 93.9432C95.4909 94.7621 96.3639 95.5911 97.2729 96.3805C97.6215 96.683 98.1173 96.1923 97.7806 95.8603C96.8207 94.9154 95.8246 94.0146 94.8346 93.1067C95.3688 91.1235 95.9305 89.1494 96.5195 87.1821C98.2603 88.4856 99.9979 89.7949 101.753 91.0781C102.036 91.2852 102.294 90.8054 102.018 90.5986C100.248 89.2726 98.4584 87.9712 96.673 86.6653C97.2851 84.6402 97.9294 82.6239 98.623 80.6201C100.87 82.22 103.136 83.7926 105.469 85.2599C105.861 85.5064 106.156 84.9083 105.811 84.6425C103.57 82.9168 101.254 81.2956 98.9195 79.703C99.5046 77.8497 100.252 75.1584 101.218 72.345C104.632 74.8093 108.041 77.2803 111.51 79.665C111.878 79.9181 112.197 79.3157 111.846 79.0578C108.418 76.5451 104.93 74.1212 101.448 71.6887C102.496 68.7252 103.803 65.6962 105.44 63.3904C109.084 66.4339 112.749 69.4617 116.521 72.3368C116.896 72.623 117.39 71.9655 117.023 71.6608C113.373 68.6258 109.6 65.736 105.821 62.8684C107.271 60.9902 108.98 59.7239 110.987 59.5356C113.598 61.7449 116.205 63.96 118.867 66.1025C119.348 66.4897 120.035 65.8169 119.552 65.4004C117.264 63.428 114.93 61.5106 112.595 59.5956C113.517 59.7724 114.495 60.1697 115.536 60.8342C120.536 64.0243 125.152 75.5628 128.145 80.8182C131.263 86.2914 134.142 91.888 136.954 97.5259C122.389 91.1891 105.822 93.9365 93.4224 103.002C93.3937 102.808 93.3085 102.629 93.0966 102.526C79.7906 96.0656 64.8708 92.5971 50.3671 90.4073C49.6219 90.2945 49.0287 90.8634 49.1874 91.6428C52.4747 107.787 59.5887 123.897 71.4398 135.393C71.8015 135.744 72.4938 135.261 72.1644 134.822C69.2167 130.9 66.3034 127.001 63.6567 122.903C66.4319 124.923 69.1643 126.998 71.9345 129.031C72.3203 129.314 72.8159 128.654 72.4434 128.345C69.4101 125.828 66.1034 123.622 62.7599 121.543C61.7886 119.979 60.8605 118.381 59.9956 116.734C59.0294 114.894 57.8987 112.803 56.7999 110.611C60.1383 113.777 63.9305 116.55 67.6615 119.096C68.2624 119.506 68.788 118.521 68.2096 118.105C63.7325 114.887 59.6716 111.238 55.4303 107.746C53.8218 104.207 52.5476 100.538 52.3163 97.1761C57.0462 101.211 61.8858 105.114 66.7244 109.012C67.2005 109.396 67.8803 108.723 67.4005 108.319C62.1794 103.919 56.967 99.4992 51.6005 95.2845C51.5963 95.2814 51.5918 95.2841 51.5877 95.2809C51.1691 94.1096 51.642 93.2898 53.0179 92.8235C54.9842 93.1417 56.9437 93.4976 58.8984 93.8809C63.6682 96.8343 68.276 100.028 72.7177 103.487C73.193 103.858 73.8665 103.189 73.3854 102.803C69.6486 99.7966 65.7637 97.0434 61.7294 94.5079C63.9939 94.9923 66.2601 95.4723 68.5036 96.0466C69.8679 96.3959 71.2109 96.8009 72.5582 97.1956C77.301 100.385 81.8686 103.807 86.4308 107.269C86.7431 107.506 87.1459 106.965 86.8467 106.709C83.1245 103.509 79.1646 100.633 75.087 97.9353C77.9798 98.8361 80.8458 99.8106 83.7081 100.803C85.5002 102.201 87.2298 103.682 88.8581 105.275C89.2996 105.706 89.9428 105.043 89.5263 104.59C88.6172 103.601 87.6586 102.688 86.6621 101.824C88.5449 102.48 90.4256 103.141 92.3199 103.78C86.2538 108.492 81.2746 114.759 78.1661 122.257C76.2397 126.902 75.0657 131.644 74.5461 136.37C74.364 136.241 74.1312 136.176 73.8591 136.229C58.4844 139.222 44.125 145.232 30.813 153.583C30.2051 153.965 30.1002 155.032 30.8248 155.374C45.4355 162.296 60.885 166.046 76.9172 166.398C71.2273 174.541 66.1258 183.109 61.3954 191.879C61.1495 191.903 61.0037 192.178 61.1038 192.422C58.879 196.564 56.728 200.747 54.6492 204.956C54.4154 205.43 54.5156 206.13 55.036 206.378C61.0472 209.243 66.5542 207.832 72.5225 205.301C82.625 201.016 92.5589 195.827 102.262 190.605C103.023 199.787 104.328 208.932 105.96 217.992C106.638 221.755 106.655 231.72 111.693 233.079C116.774 234.45 121.049 225.468 122.964 222.499C128.714 213.589 133.275 204.018 136.945 194.041C137.829 193.886 138.701 193.677 139.576 193.48C144.745 196.66 150.177 199.274 155.918 201.202C156.371 201.355 156.524 200.647 156.096 200.478C150.801 198.388 145.695 195.988 140.718 193.236C143.574 192.528 146.356 191.567 149.055 190.412C152.441 192.266 155.817 194.139 159.275 195.85C159.783 196.101 160.214 195.349 159.711 195.062C156.561 193.266 153.337 191.615 150.118 189.955C152.675 188.795 155.125 187.411 157.468 185.859C159.494 186.902 161.499 188.037 163.6 188.917C164.18 189.159 164.681 188.349 164.096 188.022C162.246 186.989 160.283 186.159 158.355 185.286C160.857 183.554 163.214 181.6 165.376 179.414C169.707 192.176 172.111 205.346 171.145 218.941C170.075 234.007 158.263 222.247 152.731 216.04C156.276 218.162 159.981 219.975 163.86 221.366C164.239 221.502 164.494 220.861 164.124 220.69C160.094 218.834 156.131 216.894 152.24 214.751C152.02 214.63 151.827 214.728 151.715 214.885C151.7 214.867 151.682 214.847 151.667 214.83C149.062 211.825 146.781 208.651 144.716 205.335C149.071 208.102 153.541 210.645 158.233 212.77C158.747 213.002 159.189 212.236 158.67 211.982C153.788 209.599 148.987 207.1 144.345 204.258C144.245 204.196 144.15 204.193 144.068 204.224C142.248 201.209 140.57 198.098 139.005 194.877C138.472 193.781 136.955 194.741 137.421 195.819C141.837 206.028 148.367 215.218 156.504 222.683C159.311 225.258 165.916 232.676 170.349 229.596C175.78 225.822 173.421 209.666 172.899 204.373C172.018 195.434 169.731 186.819 166.152 178.653C166.201 178.601 166.256 178.555 166.304 178.503C173.889 181.14 182.332 181.784 190.276 181.188C195.215 180.817 205.938 180.393 209.6 176.612C217.136 168.832 185.391 153.31 180.745 151.044ZM34.4577 153.711C34.683 153.149 36.3272 152.2 38.0871 151.305L38.0884 151.306C40.5878 152.977 43.1025 154.624 45.6354 156.24C46.1397 156.563 46.5894 155.744 46.0893 155.42C43.7175 153.883 41.3269 152.376 38.9256 150.887C40.5416 150.093 42.0896 149.398 42.567 149.152C43.1388 148.857 43.7291 148.597 44.3059 148.312C47.8442 151.165 51.6195 153.78 55.4095 156.264C55.7387 156.48 56.1517 155.944 55.8328 155.695C52.3615 152.975 48.7877 150.318 45.0796 147.938C47.6562 146.687 50.2708 145.513 52.9219 144.445C56.2525 147.093 59.5666 149.761 63.0229 152.239C63.4171 152.521 63.9167 151.857 63.5395 151.543C60.3988 148.935 57.1289 146.505 53.8654 144.061C56.0026 143.227 58.1646 142.486 60.3373 141.784C60.3667 141.826 60.3727 141.874 60.4206 141.909C62.9684 143.754 65.4985 145.526 67.8368 147.657C68.2771 148.059 68.9143 147.417 68.488 146.99C66.375 144.872 63.9637 142.88 61.3137 141.478C63.2786 140.86 65.2573 140.292 67.2441 139.751C69.3016 140.962 71.0656 142.514 72.6335 144.336C73.0334 144.802 73.639 144.134 73.2847 143.669C71.9574 141.929 70.3484 140.546 68.5316 139.408C70.4558 138.9 72.3865 138.411 74.3306 137.962C74.3688 137.953 74.3907 137.931 74.4248 137.919C73.6677 147.499 75.6333 156.947 79.8298 165.329C79.7032 165.321 79.5495 165.308 79.3637 165.291C79.7199 164.531 78.6227 163.959 78.1197 164.663C78.0105 164.816 77.9069 164.974 77.7977 165.127C68.0632 164.013 32.4351 158.766 34.4577 153.711ZM80.0555 166.467C80.1958 166.467 80.2848 166.399 80.3687 166.331C81.4453 168.372 82.6733 170.333 84.0048 172.226C81.8091 170.989 79.6132 169.752 77.4175 168.515C77.8437 167.822 78.2685 167.129 78.6948 166.437C79.1494 166.439 79.5995 166.47 80.0555 166.467ZM85.6564 197.042C80.1316 199.592 68.8955 207.373 62.4094 206.054C58.1423 205.186 58.264 201.826 59.8188 198.07C61.4521 199.423 63.2236 200.567 65.1541 201.443C65.6445 201.666 66.0616 200.96 65.5725 200.687C63.6978 199.64 61.9156 198.473 60.1967 197.187C60.7962 195.894 61.5393 194.578 62.3059 193.312C65.3447 195.3 68.49 197.095 71.8691 198.417C72.3401 198.602 72.6534 197.796 72.1996 197.573C68.9945 195.995 65.8166 194.415 62.7499 192.582C63.9682 190.623 65.1703 188.866 65.9651 187.573C69.8621 189.966 73.735 192.416 77.7595 194.578C78.273 194.855 78.6907 194.094 78.2017 193.779C74.3642 191.308 70.3598 189.114 66.3907 186.87C67.3392 185.184 68.308 183.512 69.2894 181.848C69.2199 181.987 69.2297 182.173 69.3963 182.281C71.7144 183.786 74.1266 185.107 76.7287 186.015C77.0762 186.136 77.3132 185.548 76.9707 185.396C74.4814 184.29 72.0371 183.149 69.708 181.717C69.5383 181.613 69.3831 181.692 69.3027 181.824C70.3796 179.999 71.4867 178.192 72.589 176.384C77.0788 178.937 81.6002 181.409 86.1894 183.773C86.7988 184.087 87.3171 183.168 86.714 182.825C82.2329 180.281 77.7025 177.855 73.1234 175.5C74.3868 173.433 75.6587 171.372 76.9285 169.309C79.1751 170.637 81.421 171.966 83.6679 173.294C84.0528 173.522 84.378 173.2 84.4259 172.853C89.0447 179.232 95.0833 184.655 102.28 188.535C102.174 188.668 102.104 188.841 102.122 189.076C102.138 189.285 102.163 189.493 102.18 189.703C96.6279 192.046 91.1331 194.514 85.6564 197.042ZM127.482 211.631C126.111 214.052 124.656 216.423 123.163 218.767C120.236 223.363 119.725 225.517 114.124 226.298C108.019 227.15 109.414 225.544 108.461 220.61C108.416 220.38 108.38 220.149 108.336 219.919C110.562 221.936 113.027 223.759 115.468 225.481C115.826 225.734 116.27 225.142 115.934 224.853C113.518 222.777 110.991 220.673 108.319 218.948C108.264 218.913 108.21 218.923 108.157 218.921C107.691 216.456 107.237 213.988 106.822 211.513C109.202 213.214 111.713 214.756 114.197 216.282C114.617 216.539 114.973 215.881 114.569 215.611C111.989 213.887 109.388 212.123 106.677 210.613C106.282 208.201 105.955 205.781 105.619 203.361C109.225 205.999 112.975 208.429 116.993 210.361C117.337 210.527 117.628 210.025 117.288 209.829C113.244 207.501 109.278 205.117 105.479 202.404C105.008 198.955 104.571 195.502 104.137 192.046C108.668 195.313 113.4 198.271 118.371 200.789C118.92 201.067 119.389 200.239 118.842 199.937C113.76 197.132 108.816 194.148 103.99 190.913C103.942 190.528 103.889 190.144 103.84 189.759C103.979 189.684 104.12 189.61 104.259 189.535C104.788 189.812 105.308 190.099 105.859 190.344C109.468 191.952 113.216 193.114 117.022 193.858C119.531 195.395 122.01 196.98 124.481 198.585C124.8 198.792 125.054 198.292 124.764 198.073C122.895 196.663 120.948 195.381 118.959 194.166C124.612 195.054 130.364 195.062 135.969 194.183C133.425 200.144 130.672 205.998 127.482 211.631ZM165.202 176.413C165.161 176.327 165.131 176.235 165.089 176.149C164.894 175.741 164.21 176.029 164.366 176.46C164.443 176.67 164.508 176.882 164.583 177.092C150.019 192.539 126.088 196.898 106.565 188.157C83.1787 177.685 70.5098 151.295 78.9035 126.236C87.4185 100.816 114.183 91.0102 137.804 99.209C137.9 99.4026 138 99.5929 138.096 99.7859C138.374 100.347 138.905 100.391 139.322 100.165C139.543 100.281 139.83 100.262 140.016 99.9797C140.016 99.9797 140.018 99.9766 140.019 99.9743C140.024 99.9763 140.029 99.9778 140.034 99.9798C140.436 100.14 140.679 99.6141 140.49 99.2972C142.892 95.7036 145.514 92.3419 148.437 89.2351C151.45 91.2244 154.558 92.9166 157.915 94.2411C158.415 94.4384 158.757 93.5696 158.267 93.3401C155.146 91.8788 152.096 90.2639 149.164 88.4368C150.225 87.3465 151.326 86.2907 152.476 85.274C153.042 84.7742 153.792 84.113 154.657 83.3713C157.085 85.067 159.632 86.5441 162.357 87.7089C162.828 87.9105 163.238 87.2259 162.758 86.9849C160.214 85.7078 157.761 84.2972 155.366 82.7695C156.875 81.4942 158.677 80.0412 160.543 78.7009C162.844 80.1094 165.142 81.529 167.518 82.7967C168.116 83.1152 168.593 82.2405 168.031 81.87C165.935 80.4889 163.761 79.2343 161.587 77.9804C162.909 77.0766 164.238 76.2652 165.506 75.6292C167.591 77.2112 169.664 78.8335 171.891 80.1916C172.242 80.4059 172.664 79.8707 172.335 79.5928C170.458 77.9977 168.413 76.6102 166.383 75.2158C167.618 74.6721 168.774 74.3269 169.764 74.3114C180.796 74.1411 168.981 107.486 166.964 113.929C160.432 107.105 151.608 102.364 141.113 101.121C140.011 100.99 139.552 102.711 140.685 102.866C161.011 105.635 174.667 121.611 176.945 140.036C176.544 140.203 176.465 140.89 176.999 141.059C177.022 141.066 177.042 141.076 177.064 141.082C177.898 149.448 176.399 158.27 172.108 166.562C170.208 170.235 167.849 173.491 165.202 176.413Z" fill="#DAE3E9"></path><path d="M146.059 155.948C139.882 164.871 130.572 170.256 119.644 168.771C107.355 167.101 94.2222 155.366 97.8847 141.432C98.047 140.814 97.1593 140.612 96.955 141.194C92.4841 153.914 103.109 166.091 114.57 169.862C127.363 174.071 140.627 168.213 147.676 156.882C148.325 155.836 146.736 154.969 146.059 155.948Z" fill="#DAE3E9"></path><path d="M120.853 130.275C120.049 127.757 117.936 125.629 115.25 125.512C110.342 125.298 106.911 131.489 109.386 135.706C109.767 136.355 110.691 135.786 110.369 135.121C108.855 131.983 111.331 127.495 114.834 127.341C116.887 127.252 118.467 128.907 119.088 130.775C119.823 132.983 119.109 134.544 118.058 136.441C117.715 137.062 118.413 137.723 119.005 137.396C121.35 136.102 121.596 132.604 120.853 130.275Z" fill="#DAE3E9"></path><path d="M139.349 130.501C133.965 128.628 128.25 134.401 131.305 139.774C131.695 140.461 132.687 139.855 132.34 139.158C129.781 134.01 136.105 130.129 140.244 132.937C142.218 134.277 143.311 136.503 143.377 138.894C143.449 141.465 142.28 143.346 141.316 145.594C140.985 146.365 141.855 147.145 142.508 146.518C147.263 141.942 145.579 132.667 139.349 130.501Z" fill="#DAE3E9"></path><path d="M154.693 100.665C151.36 98.545 147.897 96.297 144.281 94.7174C143.755 94.4875 143.379 95.1628 143.845 95.5056C147.036 97.8562 150.705 99.7253 154.204 101.55C154.774 101.847 155.237 101.011 154.693 100.665Z" fill="#DAE3E9"></path><path d="M180.695 176.59C177.625 175.247 174.494 174.065 171.373 172.851C170.861 172.653 170.498 173.562 171.012 173.775C174.106 175.057 177.186 176.372 180.33 177.524C180.851 177.716 181.211 176.816 180.695 176.59Z" fill="#DAE3E9"></path></g><defs><clipPath id="clip0"><rect width="181.966" height="183.882" fill="white" transform="matrix(0.866025 0.5 -0.484203 0.874956 89.2246 18.7217)"></rect></clipPath></defs></svg> 